<svg width="20" height="17" viewBox="0 0 20 17" fill="none" xmlns="http://www.w3.org/2000/svg">
<path d="M12.947 9.69915L6.99844 15.7441C6.77767 15.9753 6.4945 16.1319 6.19652 16.1876C5.89854 16.2433 5.60389 16.1947 5.36208 16.0499C5.19768 15.9558 5.06166 15.8217 4.96442 15.6577C4.86718 15.4938 4.8113 15.3044 4.80103 15.104C4.79077 14.9036 4.8264 14.6976 4.9052 14.5016C4.984 14.3056 5.10388 14.1248 5.2557 13.9731L17.1718 1.86389C17.2987 1.71341 17.4519 1.58758 17.6216 1.49437C17.7912 1.40117 17.9737 1.34264 18.1574 1.3225C18.3411 1.30236 18.5221 1.32106 18.6887 1.37739C18.8553 1.43373 19.004 1.52648 19.1253 1.64975C19.2466 1.77302 19.3379 1.92412 19.3933 2.09344C19.4487 2.26276 19.4671 2.4466 19.4473 2.63329C19.4275 2.81998 19.3699 3.00543 19.2782 3.17785C19.1865 3.35028 19.0626 3.50592 18.9146 3.63488L12.947 9.69915Z" fill="currentColor"/>
<path d="M1.0133 7.74166C1.57294 7.34345 2.34254 7.47913 2.73225 8.04472L6.99721 14.2344C7.38692 14.8 7.24917 15.5813 6.68953 15.9795C6.12989 16.3777 5.36029 16.2421 4.97058 15.6765L2.8381 12.5816L0.705625 9.48677C0.315911 8.92118 0.453662 8.13987 1.0133 7.74166Z" fill="currentColor"/>
</svg>
