<svg width="12" height="2" viewBox="0 0 12 2" fill="none" xmlns="http://www.w3.org/2000/svg">
<path d="M5.97028 1.90264H0.810026C0.590703 1.88842 0.384807 1.78714 0.234299 1.61942C0.0837919 1.4517 0 1.23018 0 0.999993C0 0.769807 0.0837919 0.548284 0.234299 0.380567C0.384807 0.212851 0.590703 0.111565 0.810026 0.0973511H11.1503C11.3526 0.0990955 11.5477 0.175735 11.7012 0.313706C11.8547 0.451677 11.9566 0.642081 11.989 0.851219C12.0213 1.06036 11.982 1.27474 11.878 1.45643C11.7739 1.63812 11.6119 1.77539 11.4205 1.84396C11.3135 1.87676 11.2025 1.89304 11.091 1.89228L5.97028 1.90264Z" fill="currentColor"/>
</svg>
