<svg width="183" height="184" viewBox="0 0 183 184" fill="none" xmlns="http://www.w3.org/2000/svg">
<g filter="url(#filter0_d_8_159)">
<circle cx="91.5" cy="88" r="87.5" fill="#5C18ED"/>
</g>
<g filter="url(#filter1_d_8_159)">
<circle cx="91.5" cy="88" r="87.5" fill="#5C18ED"/>
</g>
<g filter="url(#filter2_d_8_159)">
<path d="M72.1266 78.918C74.7141 78.918 76.8141 76.818 76.8141 74.2305V55.9492C76.8141 47.7766 83.4633 41.125 91.6359 41.125C99.8086 41.125 106.46 47.7766 106.46 55.9492V74.2305C106.46 76.818 108.558 78.918 111.148 78.918C113.735 78.918 115.835 76.818 115.835 74.2305V55.9492C115.837 42.6063 104.981 31.75 91.6359 31.75C78.2953 31.75 67.4391 42.6063 67.4391 55.9492V74.2305C67.4391 76.818 69.5391 78.918 72.1266 78.918Z" fill="white"/>
<path d="M145.406 68.3852H120.525V74.2305C120.525 79.4008 116.32 83.6055 111.15 83.6055C105.98 83.6055 101.775 79.4008 101.775 74.2305V68.3852H81.5039V74.2305C81.5039 79.4008 77.2992 83.6055 72.1289 83.6055C66.9586 83.6055 62.7539 79.4008 62.7539 74.2305V68.3852H37.5937C36.3 68.3852 35.5008 69.4047 35.8078 70.6609L52.2094 137.451C53.1984 141.205 57.15 144.25 61.0312 144.25H121.969C125.855 144.25 129.802 141.205 130.795 137.451L147.192 70.6609C147.499 69.4023 146.702 68.3852 145.406 68.3852Z" fill="white"/>
</g>
<path d="M84.5156 89.1807H78.4843V131.118H84.9805V113.786V105.591V89.1807H84.5156Z" fill="#5C18ED"/>
<path d="M88.9365 106.118L85.8496 109.929L85.7589 110.028V111.853L85.861 111.964L101.375 131.118H109.205L89.7649 107.142L88.9365 106.118Z" fill="#5C18ED"/>
<path d="M85.8475 106.895L85.7589 107.001V115.97V116.181V116.169L85.8475 116.075L88.8622 112.453L89.6713 111.479L108.236 89.1807H100.589L85.8475 106.895Z" fill="#5C18ED"/>
<defs>
<filter id="filter0_d_8_159" x="0" y="0.5" width="183" height="183" filterUnits="userSpaceOnUse" color-interpolation-filters="sRGB">
<feFlood flood-opacity="0" result="BackgroundImageFix"/>
<feColorMatrix in="SourceAlpha" type="matrix" values="0 0 0 0 0 0 0 0 0 0 0 0 0 0 0 0 0 0 127 0" result="hardAlpha"/>
<feOffset dy="4"/>
<feGaussianBlur stdDeviation="2"/>
<feComposite in2="hardAlpha" operator="out"/>
<feColorMatrix type="matrix" values="0 0 0 0 0 0 0 0 0 0 0 0 0 0 0 0 0 0 0.25 0"/>
<feBlend mode="normal" in2="BackgroundImageFix" result="effect1_dropShadow_8_159"/>
<feBlend mode="normal" in="SourceGraphic" in2="effect1_dropShadow_8_159" result="shape"/>
</filter>
<filter id="filter1_d_8_159" x="0" y="0.5" width="183" height="183" filterUnits="userSpaceOnUse" color-interpolation-filters="sRGB">
<feFlood flood-opacity="0" result="BackgroundImageFix"/>
<feColorMatrix in="SourceAlpha" type="matrix" values="0 0 0 0 0 0 0 0 0 0 0 0 0 0 0 0 0 0 127 0" result="hardAlpha"/>
<feOffset dy="4"/>
<feGaussianBlur stdDeviation="2"/>
<feComposite in2="hardAlpha" operator="out"/>
<feColorMatrix type="matrix" values="0 0 0 0 0 0 0 0 0 0 0 0 0 0 0 0 0 0 0.25 0"/>
<feBlend mode="normal" in2="BackgroundImageFix" result="effect1_dropShadow_8_159"/>
<feBlend mode="normal" in="SourceGraphic" in2="effect1_dropShadow_8_159" result="shape"/>
</filter>
<filter id="filter2_d_8_159" x="31.7422" y="31.75" width="119.516" height="120.5" filterUnits="userSpaceOnUse" color-interpolation-filters="sRGB">
<feFlood flood-opacity="0" result="BackgroundImageFix"/>
<feColorMatrix in="SourceAlpha" type="matrix" values="0 0 0 0 0 0 0 0 0 0 0 0 0 0 0 0 0 0 127 0" result="hardAlpha"/>
<feOffset dy="4"/>
<feGaussianBlur stdDeviation="2"/>
<feComposite in2="hardAlpha" operator="out"/>
<feColorMatrix type="matrix" values="0 0 0 0 0 0 0 0 0 0 0 0 0 0 0 0 0 0 0.25 0"/>
<feBlend mode="normal" in2="BackgroundImageFix" result="effect1_dropShadow_8_159"/>
<feBlend mode="normal" in="SourceGraphic" in2="effect1_dropShadow_8_159" result="shape"/>
</filter>
</defs>
</svg>
