<svg width="20" height="16" viewBox="0 0 20 16" fill="none" xmlns="http://www.w3.org/2000/svg">
<path d="M9.96296 9.50012H1.49355C1.17443 9.5059 0.863152 9.39511 0.612013 9.18636C0.360874 8.9776 0.185175 8.68361 0.114434 8.35377C0.0633115 8.13316 0.0604518 7.90309 0.106073 7.68114C0.151694 7.45918 0.244589 7.25122 0.377657 7.07314C0.510726 6.89506 0.680447 6.75157 0.873851 6.65365C1.06725 6.55573 1.27922 6.50596 1.49355 6.50814H18.4594C18.6552 6.48996 18.8523 6.51514 19.0384 6.58206C19.2245 6.64898 19.3954 6.75619 19.5403 6.89688C19.6852 7.03757 19.8009 7.20865 19.88 7.39927C19.9592 7.58989 20.0001 7.79587 20.0001 8.00413C20.0001 8.21239 19.9592 8.41837 19.88 8.60899C19.8009 8.79961 19.6852 8.97069 19.5403 9.11138C19.3954 9.25207 19.2245 9.35928 19.0384 9.4262C18.8523 9.49313 18.6552 9.5183 18.4594 9.50012H9.96296Z" fill="currentColor"/>
<path d="M9.95745 15.5012H1.48805C1.12808 15.4776 0.790144 15.3095 0.54312 15.031C0.296095 14.7525 0.158569 14.3846 0.158569 14.0024C0.158569 13.6202 0.296095 13.2523 0.54312 12.9738C0.790144 12.6953 1.12808 12.5271 1.48805 12.5035H18.4593C18.7913 12.5064 19.1115 12.6337 19.3634 12.8628C19.6154 13.0919 19.7827 13.4081 19.8358 13.7554C19.8889 14.1026 19.8243 14.4586 19.6536 14.7603C19.4828 15.062 19.2169 15.29 18.9028 15.4038C18.7271 15.4583 18.545 15.4853 18.362 15.4841L9.95745 15.5012Z" fill="currentColor"/>
<path d="M9.95749 3.49897H1.50972C1.31669 3.51239 1.12313 3.48378 0.940933 3.4149C0.75874 3.34603 0.591782 3.23835 0.450345 3.0985C0.308908 2.95865 0.195986 2.78959 0.118537 2.60174C0.0410871 2.41389 0.000750072 2.21121 1.03616e-05 2.00621C-0.000729349 1.80121 0.038144 1.59822 0.114236 1.40974C0.190327 1.22126 0.302025 1.05129 0.442449 0.9103C0.582873 0.769308 0.749049 0.66028 0.930739 0.589933C1.11243 0.519585 1.30579 0.489408 1.4989 0.501261H18.5026C18.8626 0.524864 19.2005 0.693051 19.4475 0.971547C19.6946 1.25004 19.8321 1.61789 19.8321 2.00011C19.8321 2.38234 19.6946 2.75019 19.4475 3.02868C19.2005 3.30718 18.8626 3.47537 18.5026 3.49897H9.95749Z" fill="currentColor"/>
</svg>
