<svg width="38" height="51" viewBox="0 0 38 51" fill="none" xmlns="http://www.w3.org/2000/svg">
<path d="M27.148 16.6913V24.5838C27.0981 26.6157 26.2427 28.5496 24.7615 29.9792C23.2803 31.4088 21.2886 32.2227 19.205 32.2501C17.1215 32.2774 15.1081 31.5159 13.5881 30.1256C12.068 28.7354 11.1596 26.8246 11.0537 24.7947C11.0537 19.3593 10.9774 13.9115 11.0537 8.47609C11.0976 6.39603 11.9868 4.41816 13.5258 2.97759C15.0647 1.53702 17.1274 0.751752 19.2599 0.794538C21.3925 0.837324 23.4203 1.70466 24.8972 3.20574C26.3741 4.70682 27.1792 6.71868 27.1353 8.79874V16.6913H27.148Z" fill="#5C18ED"/>
<path d="M0.302856 24.5466H4.80673C4.81066 26.5757 5.30042 28.5759 6.23697 30.3879C7.17352 32.1998 8.53098 33.7733 10.2012 34.9831C12.9329 37.0441 16.3329 38.079 19.7815 37.8993C23.365 37.7866 26.769 36.3427 29.2972 33.8629C31.8254 31.3831 33.2867 28.0549 33.3821 24.559H37.7461C38.3822 29.8455 33.7129 40.133 21.7789 42.2179V50.7929H20.3158C19.2471 50.7929 18.1784 50.7929 17.1097 50.7929C16.5626 50.7929 16.3845 50.644 16.3972 50.098C16.3972 47.7029 16.3972 45.2955 16.3972 42.888C16.3972 42.3047 16.2064 42.131 15.6593 42.0193C12.8637 41.5189 10.2194 40.4114 7.92236 38.7788C5.62526 37.1461 3.73424 35.0303 2.3894 32.588C1.02994 30.2489 0.311321 27.6076 0.302856 24.9189C0.302856 24.8072 0.302856 24.6955 0.302856 24.5466Z" fill="#5C18ED"/>
</svg>
