<svg width="24" height="24" viewBox="0 0 24 24" fill="none" xmlns="http://www.w3.org/2000/svg">
<path d="M13.7528 12.0857V21.8943C13.7596 22.2639 13.6298 22.6244 13.3852 22.9152C13.1406 23.2061 12.7961 23.4095 12.4096 23.4915C12.1512 23.5507 11.8816 23.554 11.6215 23.5012C11.3615 23.4483 11.1178 23.3407 10.9091 23.1866C10.7005 23.0325 10.5324 22.836 10.4176 22.612C10.3029 22.388 10.2446 22.1425 10.2471 21.8943L10.2471 2.24581C10.2258 2.0191 10.2553 1.79074 10.3337 1.57523C10.4122 1.35973 10.5378 1.16179 10.7026 0.993988C10.8675 0.826191 11.0679 0.692204 11.2913 0.60054C11.5146 0.508879 11.756 0.461544 12 0.461544C12.244 0.461544 12.4853 0.508879 12.7087 0.60054C12.932 0.692204 13.1325 0.826191 13.2973 0.993988C13.4622 1.16179 13.5878 1.35973 13.6662 1.57523C13.7446 1.79074 13.7741 2.0191 13.7528 2.24581L13.7528 12.0857Z" fill="currentColor"/>
<path d="M11.9429 13.7359H2.01929C1.59751 13.7085 1.20156 13.5137 0.912124 13.1912C0.622686 12.8687 0.461548 12.4427 0.461548 12C0.461548 11.5573 0.622686 11.1313 0.912124 10.8088C1.20156 10.4863 1.59751 10.2915 2.01929 10.2642H21.9044C22.2934 10.2675 22.6686 10.4149 22.9638 10.6802C23.259 10.9456 23.455 11.3117 23.5173 11.7139C23.5795 12.1161 23.5039 12.5284 23.3038 12.8778C23.1037 13.2272 22.7921 13.4912 22.4241 13.623C22.2183 13.6861 22.0048 13.7174 21.7904 13.7159L11.9429 13.7359Z" fill="currentColor"/>
</svg>
