<svg width="22" height="22" viewBox="0 0 22 22" fill="none" xmlns="http://www.w3.org/2000/svg">
<path d="M11.7237 10.1146L16.232 14.6228C16.4049 14.7896 16.511 15.0149 16.5322 15.261C16.5535 15.5071 16.4887 15.759 16.3487 15.9743C16.2571 16.1203 16.1347 16.2457 15.9909 16.341C15.8471 16.4362 15.6857 16.4988 15.5189 16.5238C15.3522 16.5489 15.1846 16.5358 15.0289 16.4856C14.8732 16.4354 14.7336 16.3494 14.6207 16.2341L5.58986 7.20329C5.47587 7.10888 5.38447 6.99037 5.32146 6.85528C5.25845 6.72019 5.2252 6.57147 5.22385 6.41858C5.22249 6.2657 5.25304 6.11198 5.31357 5.96719C5.37409 5.82241 5.46326 5.68972 5.57542 5.57757C5.68757 5.46542 5.82026 5.37624 5.96504 5.31572C6.10982 5.2552 6.26354 5.22464 6.41643 5.226C6.56932 5.22736 6.71803 5.2606 6.85312 5.32361C6.98822 5.38662 7.10673 5.47802 7.20114 5.59201L11.7237 10.1146Z" fill="currentColor"/>
<path d="M11.6503 11.705L7.08922 16.266C6.8828 16.4473 6.61129 16.5398 6.33001 16.5246C6.04874 16.5094 5.77888 16.3876 5.57542 16.1842C5.37196 15.9807 5.25022 15.7109 5.23501 15.4296C5.2198 15.1483 5.31226 14.8768 5.49356 14.6704L14.6332 5.53078C14.8135 5.35356 15.0537 5.24882 15.3113 5.2351C15.5689 5.22139 15.8273 5.29958 16.0408 5.45583C16.2542 5.61209 16.409 5.83633 16.4776 6.08888C16.5462 6.34143 16.5243 6.60599 16.4158 6.83574C16.3502 6.95932 16.2665 7.07183 16.1672 7.16971L11.6503 11.705Z" fill="currentColor"/>
</svg>
