<svg width="30" height="31" viewBox="0 0 30 31" fill="none" xmlns="http://www.w3.org/2000/svg">
<path d="M16.8805 17.4772L5.81656 28.5412C5.40732 28.9657 4.85425 29.2259 4.25028 29.2781C3.64631 29.3302 3.02823 29.1712 2.49987 28.8277C2.14153 28.6029 1.83372 28.3026 1.59997 27.9496C1.36621 27.5967 1.21271 27.2005 1.15118 26.7913C1.08965 26.3821 1.12173 25.9707 1.24496 25.5887C1.36819 25.2066 1.57931 24.8639 1.86219 24.5868L24.0254 2.42356C24.2571 2.14382 24.548 1.9195 24.8795 1.76486C25.2111 1.61022 25.576 1.52864 25.9512 1.5253C26.3265 1.52197 26.7037 1.59695 27.059 1.74549C27.4144 1.89403 27.74 2.11287 28.0152 2.38812C28.2905 2.66337 28.5093 2.989 28.6579 3.34432C28.8064 3.69965 28.8814 4.0769 28.8781 4.45212C28.8747 4.82733 28.7931 5.1923 28.6385 5.52384C28.4839 5.85538 28.2595 6.14624 27.9798 6.37794L16.8805 17.4772Z" fill="#F0362A"/>
<path d="M12.9774 17.2968L1.78371 6.10317C1.33878 5.59658 1.11186 4.93024 1.14919 4.23995C1.18652 3.54965 1.48529 2.88736 1.98461 2.38804C2.48393 1.88872 3.14622 1.58995 3.83652 1.55262C4.52681 1.51529 5.19315 1.74221 5.69974 2.18714L28.1299 24.6173C28.5649 25.0598 28.8219 25.6494 28.8556 26.2816C28.8892 26.9139 28.6974 27.548 28.3139 28.0719C27.9304 28.5957 27.3801 28.9755 26.7603 29.1439C26.1405 29.3123 25.4912 29.2586 24.9273 28.9922C24.624 28.8312 24.3479 28.6258 24.1077 28.3822L12.9774 17.2968Z" fill="#F0362A"/>
</svg>
